<svg xmlns="http://www.w3.org/2000/svg" width="50.781" height="47" viewBox="0 0 50.781 47">
  <defs>
    <style>
      .cls-1 {
        fill: #fff;
        fill-rule: evenodd;
      }
    </style>
  </defs>
  <path id="_17._Add_Text" data-name="17. Add Text" class="cls-1" d="M203,496.945A4.952,4.952,0,0,1,207.956,492h32.217a4.953,4.953,0,0,1,4.957,4.947v37.106A4.953,4.953,0,0,1,240.173,539H207.956A4.952,4.952,0,0,1,203,534.051V496.945Zm2.478,0a2.476,2.476,0,0,1,2.479-2.473h32.217a2.475,2.475,0,0,1,2.478,2.473v37.106a2.476,2.476,0,0,1-2.478,2.474H207.956a2.477,2.477,0,0,1-2.479-2.474V496.945Zm7.435,4.947h22.305v2.474H212.912v-2.474Zm0,4.948h22.305v2.474H212.912V506.84Zm0,4.948H225.3v2.473H212.912v-2.473Zm20.271,22.283-10.374-10.366,26.8-26.777,10.374,10.365Zm4.306-9.511-7.775,2.6,2.6-7.768Zm15.561-15.548a2.441,2.441,0,0,0,0-3.455l-1.718-1.716a2.444,2.444,0,0,0-3.457,0l-15.561,15.548,5.175,5.17Zm-17.274,13.829-1.729-1.727,15.561-15.548,1.729,1.727Z" transform="translate(-203 -492)"/>
</svg>
